# xmcd
#
# Track frame offsets:
#	150
#	10892
#	33765
#	52820
#	58367
#	73170
#	90115
#	108742
#	129087
#	143792
#	158110
#	176285
#	181167
#	198407
#	218510
#	230015
#	247795
#	256452
#	275617
#	293187
#
# Disc length: 4440 seconds
#
# Revision: 1
# Processed by: cddbd v1.5.1PL0 Copyright (c) Steve Scherf et al.
# Submitted via: CDex 1.50Beta5
#
DISCID=12115614
DTITLE=DJ YUTAKA - UNITED NATIONS3
DYEAR=1900
DGENRE=Hop
TTITLE0=Intro feat. RYU
TTITLE1=SELF DESTRUCTION feat. ZEEBRA, K-DUB SHINE, Rhymester and KOHEI JAPAN and ラッパ我
TTITLE2=Stop the Violence feat. ZEEBRA, UZI, O.J and S.T, KM-MARKIT
TTITLE3=Meeting Part I(Skit) feat. RYU
TTITLE4=Original Flow feat. ラッパ我リヤ
TTITLE5=Revolution feat. SPHERE of INFLUENCE
TTITLE6=傷だらけの天使 feat. 童子-T
TTITLE7=In Da Club(Bounce with Me) feat. DABO
TTITLE8=Rock the Party feat. DJ KAORI and JAY'ED
TTITLE9=Fresh Slice by The Beat Knuckles
TTITLE10=サクセスのひみつ feat. Rhymester
TTITLE11=No More War(Skit) feat. RYU
TTITLE12=ZERO feat. 風林火山
TTITLE13=DJ Beat Party 3 by DJ BEAT
TTITLE14=Busy B Boy feat. KOHEI JAPAN
TTITLE15=Still Dreamin' feat. Miss Monday
TTITLE16=Break It Down by GM YOSHI
TTITLE17=Going My Way feat. Concorde
TTITLE18=Outro feat. RYU
TTITLE19=データ トラック
EXTD=
EXTT0=
EXTT1=
EXTT2=
EXTT3=
EXTT4=
EXTT5=
EXTT6=
EXTT7=
EXTT8=
EXTT9=
EXTT10=
EXTT11=
EXTT12=
EXTT13=
EXTT14=
EXTT15=
EXTT16=
EXTT17=
EXTT18=
EXTT19=
PLAYORDER=
